<svg width="24" height="22" viewBox="0 0 24 22" fill="none" xmlns="http://www.w3.org/2000/svg">
<path d="M22.9828 7.70542H18.0038L15.2108 1.31012C15.0554 0.954291 14.6409 0.791682 14.285 0.947166C13.9292 1.10256 13.7666 1.51707 13.9221 1.87295L16.4693 7.70546H7.53077L10.078 1.87295C10.2334 1.51707 10.0709 1.1026 9.71501 0.947166C9.35918 0.791682 8.94462 0.954198 8.78927 1.31012L5.99627 7.70542H1.01726C0.36593 7.70542 -0.117445 8.29506 0.0250551 8.91573L2.64701 20.3359C2.75112 20.7894 3.16334 21.1117 3.63921 21.1117H20.3608C20.8367 21.1117 21.2489 20.7894 21.353 20.3359L23.975 8.91573C24.1175 8.2951 23.6341 7.70542 22.9828 7.70542ZM6.12856 9.86185C6.03462 9.86185 5.93913 9.84292 5.84749 9.80289C5.49162 9.64749 5.3291 9.23303 5.48454 8.8771L6.01273 7.66763H7.54723L6.77323 9.43989C6.65787 9.70421 6.39959 9.86185 6.12856 9.86185ZM8.4844 17.3617C8.4844 17.75 8.16959 18.0648 7.78127 18.0648C7.39296 18.0648 7.07815 17.75 7.07815 17.3617V12.2054C7.07815 11.8171 7.39296 11.5023 7.78127 11.5023C8.16959 11.5023 8.4844 11.8171 8.4844 12.2054V17.3617ZM12.7031 17.3617C12.7031 17.75 12.3883 18.0648 12 18.0648C11.6117 18.0648 11.2969 17.75 11.2969 17.3617V12.2054C11.2969 11.8171 11.6117 11.5023 12 11.5023C12.3883 11.5023 12.7031 11.8171 12.7031 12.2054V17.3617ZM16.9219 17.3617C16.9219 17.75 16.6071 18.0648 16.2188 18.0648C15.8305 18.0648 15.5156 17.75 15.5156 17.3617V12.2054C15.5156 11.8171 15.8305 11.5023 16.2188 11.5023C16.6071 11.5023 16.9219 11.8171 16.9219 12.2054V17.3617ZM18.1525 9.80289C18.0609 9.84292 17.9654 9.86185 17.8715 9.86185C17.6005 9.86185 17.3422 9.70426 17.2268 9.43993L16.4528 7.66768H17.9873L18.5155 8.87715C18.6709 9.23303 18.5084 9.64749 18.1525 9.80289Z" fill="#004A2B"/>
</svg>
