<svg width="38" height="38" viewBox="0 0 38 38" fill="none" xmlns="http://www.w3.org/2000/svg">
<path d="M15.2763 5.4475C11.9563 2.12928 5.45965 1.74451 0.8628 1.74451C0.386307 1.74451 0 2.13081 0 2.60731C0 7.20586 0.38477 13.7025 3.70299 17.0225C5.26092 18.41 7.29736 19.1371 9.38177 19.0501C11.531 19.1348 13.6339 18.4114 15.2763 17.0225C17.749 14.548 18.2028 8.37408 15.2763 5.4475Z" fill="#004A2B"/>
<path d="M37.1374 5.15747C32.5388 5.15747 26.0422 5.54224 22.7222 8.86047C19.7887 11.7939 20.2494 17.9593 22.7222 20.4337C24.365 21.8229 26.4686 22.5462 28.6183 22.4613C30.7027 22.5481 32.7391 21.8211 34.2971 20.4337C37.617 17.1138 38.0001 10.6171 38.0001 6.01849C37.9992 5.54273 37.6132 5.15747 37.1374 5.15747Z" fill="#004A2B"/>
<path d="M18.1184 36.2556C17.6419 36.2556 17.2556 35.8693 17.2556 35.3928C17.2556 17.0933 10.545 12.5017 8.01882 10.7744C7.71412 10.5798 7.42561 10.3611 7.15602 10.1204C6.82496 9.77771 6.8345 9.2315 7.17721 8.90043C7.51159 8.57746 8.04163 8.57746 8.37601 8.90043C8.57086 9.0652 8.77728 9.21572 8.99372 9.3508C11.2369 10.8848 16.5206 14.4999 18.3479 26.3578C19.7601 20.1583 23.9462 14.9534 29.6986 12.2445C30.1391 12.0373 30.6648 12.2033 30.9064 12.6259C31.1247 13.0105 30.9899 13.4991 30.6053 13.7175C30.5909 13.7256 30.5762 13.7334 30.5613 13.7407L30.4215 13.8063C20.9621 18.253 18.976 27.9989 18.976 35.3928C18.9761 35.8672 18.5929 36.2526 18.1184 36.2556Z" fill="#1F8D5F"/>
</svg>
