<svg width="16" height="16" viewBox="0 0 16 16" fill="none" xmlns="http://www.w3.org/2000/svg">
<path fill-rule="evenodd" clip-rule="evenodd" d="M15.8 14.8667L10.6667 9.73333C11.4667 8.73333 12 7.4 12 6C12 2.66667 9.33333 0 6 0C2.66667 0 0 2.66667 0 6C0 9.33333 2.66667 12 6 12C7.4 12 8.73333 11.5333 9.73333 10.6667L14.8667 15.8C15.1333 16.0667 15.5333 16.0667 15.8 15.8C16.0667 15.5333 16.0667 15.1333 15.8 14.8667ZM6 10.6667C3.4 10.6667 1.33333 8.6 1.33333 6C1.33333 3.4 3.4 1.33333 6 1.33333C8.6 1.33333 10.6667 3.4 10.6667 6C10.6667 8.6 8.6 10.6667 6 10.6667Z" fill="#101010"/>
</svg>
