<svg width="16" height="16" viewBox="0 0 16 16" fill="none" xmlns="http://www.w3.org/2000/svg">
<path fill-rule="evenodd" clip-rule="evenodd" d="M14.6 9.1L11.6 8.1C11.4 8 11.2 8 11 8C10.3 8 9.6 8.4 9.2 9.1L8.8 9.8C8.2 9.6 7.6 9.3 7.1 8.8C6.6 8.3 6.3 7.7 6.1 7.1L6.8 6.7C7.7 6.3 8.1 5.2 7.8 4.3L6.8 1.3C6.6 0.5 5.8 0 5 0C4.8 0 4.6 0 4.4 0.1L2.1 0.9C1.5 1 1.1 1.4 0.9 2C0.3 3.2 0 4.6 0 6C0 7.6 0.4 9.1 1.1 10.5C1.2 10.8 1.4 11 1.5 11.2C1.9 11.9 2.4 12.5 3 13.1C3.1 13.2 3.2 13.3 3.3 13.4C5.1 15.1 7.5 16 10 16C11.4 16 12.8 15.7 14 15.1C14.5 14.9 14.9 14.4 15.1 13.9L15.9 11.6C16.2 10.6 15.7 9.5 14.6 9.1ZM13.2 13.3C12.2 13.7 11.1 14 10 14C7.9 14 6 13.2 4.6 11.9C4.5 11.8 4.4 11.7 4.3 11.6C3.8 11.1 3.4 10.6 3.1 10.1C3 10 2.9 9.8 2.9 9.6C2.3 8.5 2 7.3 2 6C2 4.9 2.2 3.8 2.7 2.8L5 2L6 5L4 6C4 7.7 4.7 9.2 5.8 10.2C6.8 11.3 8.3 12 10 12L11 10L14 11L13.2 13.3Z" fill="white"/>
</svg>
