<svg width="24" height="22" fill="none" xmlns="http://www.w3.org/2000/svg"><path d="M22.983 7.705h-4.98L15.212 1.31a.703.703 0 10-1.289.563l2.547 5.832H7.531l2.547-5.832a.703.703 0 00-1.289-.563L5.996 7.705H1.017c-.651 0-1.134.59-.992 1.21l2.622 11.42c.104.454.516.777.992.777h16.722c.476 0 .888-.323.992-.776l2.622-11.42c.142-.62-.34-1.21-.992-1.21zM6.129 9.862a.703.703 0 01-.644-.985l.528-1.21h1.534L6.773 9.44a.703.703 0 01-.644.422zm2.355 7.5a.703.703 0 01-1.406 0v-5.157a.703.703 0 011.406 0v5.157zm4.22 0a.703.703 0 01-1.407 0v-5.157a.703.703 0 011.406 0v5.157zm4.218 0a.703.703 0 01-1.406 0v-5.157a.703.703 0 011.406 0v5.157zm1.23-7.56a.7.7 0 01-.925-.362l-.774-1.772h1.534l.529 1.21a.703.703 0 01-.363.925z" fill="#004A2B"/></svg>