<svg width="38" height="38" fill="none" xmlns="http://www.w3.org/2000/svg"><path d="M15.276 5.447C11.956 2.13 5.46 1.745.863 1.745A.863.863 0 000 2.607c0 4.599.385 11.096 3.703 14.416a8.035 8.035 0 005.679 2.027 8.604 8.604 0 005.894-2.027c2.473-2.475 2.927-8.649 0-11.575zm21.861-.29c-4.598 0-11.095.385-14.415 3.703-2.933 2.934-2.473 9.1 0 11.574a8.605 8.605 0 005.896 2.027 8.036 8.036 0 005.68-2.027C37.616 17.114 38 10.617 38 6.018a.863.863 0 00-.863-.86z" fill="#004A2B"/><path d="M18.118 36.256a.863.863 0 01-.862-.863c0-18.3-6.711-22.891-9.237-24.619a6.753 6.753 0 01-.863-.654.863.863 0 011.22-1.22c.195.165.401.316.618.45 2.243 1.535 7.527 5.15 9.354 17.008a20.676 20.676 0 0111.35-14.114.933.933 0 011.208.382.8.8 0 01-.345 1.115l-.14.065C20.963 18.253 18.977 28 18.977 35.393c0 .474-.383.86-.858.863z" fill="#1F8D5F"/></svg>