<svg width="16" height="16" fill="none" xmlns="http://www.w3.org/2000/svg"><path fill-rule="evenodd" clip-rule="evenodd" d="M14.6 9.1l-3-1c-.2-.1-.4-.1-.6-.1-.7 0-1.4.4-1.8 1.1l-.4.7c-.6-.2-1.2-.5-1.7-1s-.8-1.1-1-1.7l.7-.4c.9-.4 1.3-1.5 1-2.4l-1-3C6.6.5 5.8 0 5 0c-.2 0-.4 0-.6.1L2.1.9C1.5 1 1.1 1.4.9 2 .3 3.2 0 4.6 0 6c0 1.6.4 3.1 1.1 4.5.1.3.3.5.4.7.4.7.9 1.3 1.5 1.9l.3.3C5.1 15.1 7.5 16 10 16c1.4 0 2.8-.3 4-.9.5-.2.9-.7 1.1-1.2l.8-2.3c.3-1-.2-2.1-1.3-2.5zm-1.4 4.2c-1 .4-2.1.7-3.2.7-2.1 0-4-.8-5.4-2.1l-.3-.3c-.5-.5-.9-1-1.2-1.5-.1-.1-.2-.3-.2-.5C2.3 8.5 2 7.3 2 6c0-1.1.2-2.2.7-3.2L5 2l1 3-2 1c0 1.7.7 3.2 1.8 4.2 1 1.1 2.5 1.8 4.2 1.8l1-2 3 1-.8 2.3z" fill="#fff"/></svg>