<svg width="21" height="20" fill="none" xmlns="http://www.w3.org/2000/svg"><path d="M2.568 0h14.867a2.574 2.574 0 012.567 2.568v14.867A2.573 2.573 0 0117.435 20H2.568A2.575 2.575 0 010 17.434V2.569A2.575 2.575 0 012.568.001zm12.003 2.222c-.496 0-.9.406-.9.902v2.154c0 .496.404.901.9.901h2.26c.495 0 .9-.405.9-.9V3.123a.904.904 0 00-.9-.902h-2.26zm3.17 6.236h-1.76c.166.545.257 1.12.257 1.718 0 3.326-2.785 6.023-6.218 6.023s-6.218-2.697-6.218-6.023c0-.598.092-1.173.258-1.718H2.224v8.45c0 .438.357.793.794.793h13.928a.795.795 0 00.794-.793v-8.45zM10.02 6.066c-2.218 0-4.017 1.742-4.017 3.892s1.8 3.892 4.017 3.892c2.218 0 4.017-1.743 4.017-3.892 0-2.15-1.799-3.892-4.017-3.892z" fill="#fff"/></svg>